<?xml version="1.0" encoding="UTF-8"?>
<svg width="57.5" height="57.5" enable-background="new 0 0 70 70" version="1.1" viewBox="0 0 57.5 57.5" xml:space="preserve" xmlns="http://www.w3.org/2000/svg" xmlns:cc="http://creativecommons.org/ns#" xmlns:dc="http://purl.org/dc/elements/1.1/" xmlns:rdf="http://www.w3.org/1999/02/22-rdf-syntax-ns#"><metadata><rdf:RDF><cc:Work rdf:about=""><dc:format>image/svg+xml</dc:format><dc:type rdf:resource="http://purl.org/dc/dcmitype/StillImage"/><dc:title/></cc:Work></rdf:RDF></metadata>
<g transform="translate(-6.251,-7.2495)">
	<path d="m35 7.333c-15.832 0-28.666 12.834-28.666 28.667s12.834 28.667 28.666 28.667c15.833 0 28.667-12.834 28.667-28.667s-12.834-28.667-28.667-28.667zm18 19.667h-9v-1.791l-2.795 3.525-1.285-1.816-12.684 8.082h10.764v-1.922l6 2.244v-3.322h9v9h-9v-3.323l-6 2.245v-1.922h-10.762l12.799 8.081 1.168-1.878 2.795 3.588v-1.791h9v9h-9v-3.598l-6.218-1.496 0.85-1.805-15.632-10.112v6.011h-10v-15h10v6.01l15.748-10.112-0.965-1.804 6.217-1.497v-3.597h9z" fill="#f7981f"/>
</g>
</svg>
