<?xml version="1.0" encoding="UTF-8" standalone="no"?>
<svg
   xmlns:dc="http://purl.org/dc/elements/1.1/"
   xmlns:cc="http://creativecommons.org/ns#"
   xmlns:rdf="http://www.w3.org/1999/02/22-rdf-syntax-ns#"
   xmlns:svg="http://www.w3.org/2000/svg"
   xmlns="http://www.w3.org/2000/svg"
   version="1.1"
   id="Layer_1"
   x="0px"
   y="0px"
   width="60"
   height="60"
   viewBox="0 0 60 60"
   enable-background="new 0 0 70 70"
   xml:space="preserve"><metadata
   id="metadata861"><rdf:RDF><cc:Work
       rdf:about=""><dc:format>image/svg+xml</dc:format><dc:type
         rdf:resource="http://purl.org/dc/dcmitype/StillImage" /><dc:title></dc:title></cc:Work></rdf:RDF></metadata><defs
   id="defs859" />
<g
   id="g854"
   transform="translate(-5,-5.028)">
	<path
   fill="#f7981f"
   d="m 30.879,61.843 c 0,1.657 1.345,3.002 3.002,3.002 h 27.436 c 1.658,0 3.002,-1.345 3.002,-3.002 V 33.738 c 0,-1.658 -1.344,-3.002 -3.002,-3.002 H 33.881 c -1.657,0 -3.002,1.344 -3.002,3.002 z"
   id="path848" />
	<path
   fill="#f7981f"
   d="m 28.232,31.124 c 0,-1.658 1.345,-3.002 3.002,-3.002 H 51.8 v -7.145 c 0,-1.658 -1.344,-3.002 -3.001,-3.002 H 21.365 c -1.658,0 -3.002,1.344 -3.002,3.002 v 28.104 c 0,1.658 1.344,3.002 3.002,3.002 h 6.867 z"
   id="path850" />
	<path
   fill="#f7981f"
   d="m 15.87,18.427 c 0,-1.658 1.344,-3.002 3.002,-3.002 H 39.438 V 8.28 c 0,-1.658 -1.345,-3.002 -3.002,-3.002 H 9.002 C 7.344,5.278 6,6.622 6,8.28 v 28.105 c 0,1.657 1.344,3.002 3.002,3.002 h 6.868 z"
   id="path852" />
</g>
</svg>
