<svg xmlns="http://www.w3.org/2000/svg" width="500" height="298"><g fill="none" fill-rule="evenodd"><path fill="#252F3E" d="M141.386 108.273c0 6.126.662 11.093 1.821 14.735 1.324 3.642 2.98 7.615 5.298 11.92.828 1.324 1.159 2.649 1.159 3.808 0 1.655-.993 3.31-3.146 4.966l-10.43 6.954c-1.49.993-2.982 1.49-4.305 1.49-1.656 0-3.311-.828-4.967-2.318a51.218 51.218 0 0 1-5.96-7.781c-1.656-2.815-3.311-5.96-5.132-9.768-12.916 15.231-29.14 22.847-48.676 22.847-13.907 0-25-3.974-33.113-11.92-8.112-7.947-12.251-18.543-12.251-31.787 0-14.072 4.965-25.496 15.066-34.105 10.1-8.608 23.51-12.913 40.563-12.913 5.627 0 11.424.497 17.55 1.325 6.125.827 12.417 2.152 19.04 3.642V57.282c0-12.582-2.65-21.356-7.782-26.489-5.298-5.132-14.239-7.615-26.987-7.615-5.795 0-11.755.662-17.88 2.152-6.127 1.49-12.087 3.311-17.881 5.629-2.65 1.159-4.636 1.821-5.795 2.152-1.16.331-1.987.497-2.65.497-2.317 0-3.476-1.656-3.476-5.132v-8.113c0-2.649.331-4.635 1.159-5.794.828-1.159 2.316-2.318 4.636-3.477 5.793-2.98 12.748-5.463 20.86-7.45C66.22 1.49 74.83.497 83.936.497c19.702 0 34.106 4.47 43.378 13.41 9.106 8.94 13.742 22.515 13.742 40.726v53.64h.33zm-67.219 25.165c5.464 0 11.091-.994 17.053-2.98 5.96-1.987 11.258-5.63 15.729-10.596 2.649-3.145 4.634-6.622 5.629-10.595.993-3.974 1.655-8.775 1.655-14.404V87.91c-4.8-1.159-9.933-2.152-15.231-2.814-5.298-.663-10.43-.994-15.563-.994-11.093 0-19.206 2.152-24.67 6.622-5.463 4.47-8.112 10.762-8.112 19.04 0 7.78 1.987 13.575 6.126 17.548 3.974 4.14 9.768 6.126 17.384 6.126zm132.947 17.88c-2.98 0-4.967-.497-6.291-1.656-1.325-.993-2.484-3.31-3.477-6.456L158.439 15.23c-.995-3.311-1.49-5.463-1.49-6.622 0-2.649 1.323-4.139 3.973-4.139h16.225c3.144 0 5.298.497 6.457 1.656 1.325.993 2.318 3.31 3.312 6.456L214.73 122.18l25.826-109.598c.83-3.31 1.821-5.463 3.148-6.456 1.324-.994 3.64-1.656 6.622-1.656h13.245c3.144 0 5.298.497 6.623 1.656 1.324.993 2.483 3.31 3.145 6.456l26.158 110.922L328.14 12.582c.993-3.31 2.152-5.463 3.311-6.456 1.324-.994 3.477-1.656 6.457-1.656h15.397c2.65 0 4.14 1.324 4.14 4.139 0 .828-.166 1.655-.332 2.649-.167.993-.496 2.318-1.159 4.139l-39.9 127.974c-.995 3.311-2.154 5.463-3.479 6.457-1.323.993-3.475 1.655-6.29 1.655h-14.24c-3.144 0-5.296-.496-6.622-1.655-1.325-1.16-2.484-3.311-3.144-6.622L256.618 36.422 231.12 143.04c-.83 3.311-1.821 5.463-3.146 6.622-1.324 1.16-3.642 1.656-6.622 1.656h-14.239zm212.749 4.47c-8.61 0-17.219-.994-25.497-2.98-8.278-1.987-14.735-4.14-19.04-6.622-2.649-1.49-4.472-3.146-5.132-4.636a11.685 11.685 0 0 1-.994-4.636v-8.443c0-3.477 1.325-5.132 3.808-5.132.994 0 1.985.165 2.979.497.995.33 2.483.993 4.14 1.655a90.043 90.043 0 0 0 18.21 5.795c6.625 1.324 13.08 1.986 19.704 1.986 10.43 0 18.543-1.82 24.17-5.463 5.632-3.642 8.612-8.94 8.612-15.728 0-4.635-1.49-8.443-4.472-11.589-2.978-3.145-8.608-5.96-16.722-8.609l-24.005-7.45c-12.086-3.807-21.026-9.436-26.49-16.886-5.463-7.285-8.28-15.397-8.28-24.006 0-6.953 1.492-13.079 4.472-18.377 2.979-5.297 6.954-9.933 11.92-13.575 4.968-3.808 10.597-6.622 17.22-8.609C411.087.993 418.04.166 425.325.166c3.64 0 7.45.165 11.091.662 3.81.496 7.285 1.159 10.762 1.82 3.311.829 6.457 1.656 9.439 2.65 2.978.993 5.298 1.986 6.953 2.98 2.318 1.324 3.974 2.649 4.967 4.139.993 1.324 1.49 3.145 1.49 5.463v7.781c0 3.477-1.324 5.298-3.808 5.298-1.324 0-3.477-.662-6.291-1.987-9.437-4.304-20.033-6.456-31.788-6.456-9.437 0-16.888 1.49-22.02 4.635-5.133 3.146-7.782 7.947-7.782 14.735 0 4.635 1.656 8.608 4.967 11.754 3.312 3.146 9.437 6.291 18.212 9.106l23.51 7.45c11.92 3.807 20.53 9.105 25.662 15.893 5.133 6.788 7.616 14.569 7.616 23.178 0 7.119-1.49 13.575-4.304 19.204-2.98 5.629-6.954 10.596-12.086 14.569-5.133 4.139-11.259 7.119-18.378 9.271-7.45 2.318-15.232 3.477-23.675 3.477z"/><path fill="#F90" d="M451.152 236.248c-54.47 40.23-133.609 61.586-201.654 61.586-95.364 0-181.291-35.263-246.192-93.87-5.134-4.635-.496-10.926 5.63-7.284 70.198 40.727 156.786 65.394 246.357 65.394 60.43 0 126.821-12.582 187.914-38.408 9.106-4.14 16.887 5.96 7.945 12.582zm22.684-25.827c-6.955-8.94-46.026-4.304-63.742-2.152-5.3.662-6.127-3.973-1.324-7.45 31.126-21.853 82.283-15.562 88.245-8.278 5.96 7.45-1.656 58.607-30.796 83.109-4.469 3.808-8.774 1.821-6.789-3.146 6.623-16.39 21.36-53.308 14.406-62.083z"/></g></svg>