<?xml version="1.0" encoding="utf-8"?>
<!-- Generator: Adobe Illustrator 19.2.0, SVG Export Plug-In . SVG Version: 6.00 Build 0)  -->
<!DOCTYPE svg PUBLIC "-//W3C//DTD SVG 1.1//EN" "http://www.w3.org/Graphics/SVG/1.1/DTD/svg11.dtd" [
	<!ENTITY ns_extend "http://ns.adobe.com/Extensibility/1.0/">
	<!ENTITY ns_ai "http://ns.adobe.com/AdobeIllustrator/10.0/">
	<!ENTITY ns_graphs "http://ns.adobe.com/Graphs/1.0/">
	<!ENTITY ns_vars "http://ns.adobe.com/Variables/1.0/">
	<!ENTITY ns_imrep "http://ns.adobe.com/ImageReplacement/1.0/">
	<!ENTITY ns_sfw "http://ns.adobe.com/SaveForWeb/1.0/">
	<!ENTITY ns_custom "http://ns.adobe.com/GenericCustomNamespace/1.0/">
	<!ENTITY ns_adobe_xpath "http://ns.adobe.com/XPath/1.0/">
]>
<svg version="1.1" id="Layer_1" xmlns:x="&ns_extend;" xmlns:i="&ns_ai;" xmlns:graph="&ns_graphs;"
	 xmlns="http://www.w3.org/2000/svg" xmlns:xlink="http://www.w3.org/1999/xlink" x="0px" y="0px" viewBox="0 0 32 32"
	 style="enable-background:new 0 0 32 32;" xml:space="preserve">
<style type="text/css">
	.Drop_x0020_Shadow{fill:none;}
	.Round_x0020_Corners_x0020_2_x0020_pt{fill:#FFFFFF;stroke:#1B1B1F;stroke-miterlimit:10;}
	.Live_x0020_Reflect_x0020_X{fill:none;}
	.Bevel_x0020_Soft{fill:url(#SVGID_1_);}
	.Dusk{fill:#FFFFFF;}
	.Foliage_GS{fill:#FFDC00;}
	.Pompadour_GS{fill-rule:evenodd;clip-rule:evenodd;fill:#58AEE2;}
	.st0{fill:none;}
	.st1{fill:#FFFFFF;}
	.st2{fill:#283037;}
	.st3{fill:#4DA825;}
</style>
<switch>
	<g i:extraneous="self">
		<linearGradient id="SVGID_1_" gradientUnits="userSpaceOnUse" x1="740.9315" y1="0" x2="741.6386" y2="0.7071">
			<stop  offset="0" style="stop-color:#E6E6EA"/>
			<stop  offset="0.1719" style="stop-color:#E2E2E6"/>
			<stop  offset="0.3482" style="stop-color:#D7D6DA"/>
			<stop  offset="0.5264" style="stop-color:#C4C2C5"/>
			<stop  offset="0.7061" style="stop-color:#A9A7A8"/>
			<stop  offset="0.8852" style="stop-color:#878484"/>
			<stop  offset="1" style="stop-color:#6D6968"/>
		</linearGradient>
		<g>
			<rect x="0" y="0" class="st0" width="32" height="32"/>
			<g>
				<g>
					<path class="st1" d="M28.1,6.5l-10.1-6c-1.2-0.7-2.7-0.7-3.9,0l-10.1,6C2.7,7.2,2,8.6,2,10v12c0,1.4,0.7,2.8,1.9,3.5l10.1,6
						c0.6,0.4,1.3,0.5,1.9,0.5c0.7,0,1.3-0.2,1.9-0.5l10.1-6c1.2-0.7,1.9-2,1.9-3.5V10C30,8.6,29.3,7.2,28.1,6.5z"/>
				</g>
				<g>
					<path class="st2" d="M28.1,6.5l-10.1-6C17.3,0.2,16.7,0,16,0s-1.3,0.2-1.9,0.5l-10.1,6C2.7,7.2,2,8.6,2,10v12
						c0,1.4,0.7,2.8,1.9,3.5l10.1,6c0.6,0.4,1.3,0.5,1.9,0.5c0.7,0,1.3-0.2,1.9-0.5l10.1-6c1.2-0.7,1.9-2,1.9-3.5V10
						C30,8.6,29.3,7.2,28.1,6.5z M14.4,30.8l-10.1-6c-1-0.6-1.6-1.7-1.6-2.9V10c0-1.2,0.6-2.3,1.6-2.9l10.1-6c0.5-0.3,1-0.4,1.6-0.4
						s1.1,0.2,1.6,0.4l10.1,6c0.8,0.5,1.4,1.4,1.6,2.3c-0.3-0.7-1.1-0.9-2-0.4L17.7,15c-1.2,0.7-2.1,1.5-2.1,2.9v11.8
						c0,0.9,0.3,1.4,0.9,1.6c-0.2,0-0.4,0.1-0.5,0.1C15.4,31.3,14.9,31.1,14.4,30.8z"/>
				</g>
				<g>
					<path class="st3" d="M25.4,23.2l-2.5,1.5c-0.1,0-0.1,0.1-0.1,0.2v0.7c0,0.1,0.1,0.1,0.1,0.1l2.6-1.6c0.1,0,0.1-0.1,0.1-0.2
						v-0.6C25.5,23.2,25.5,23.1,25.4,23.2z"/>
				</g>
				<g>
					<path class="st1" d="M20,17.6c0.1,0,0.1,0,0.1,0.1l0,0.9c0.4-0.1,0.7-0.2,1-0.1c0.1,0,0.1,0.1,0.1,0.2L21,19.5
						c0,0.1,0,0.1-0.1,0.2c0,0,0,0-0.1,0c0,0-0.1,0-0.1,0c-0.1,0-0.4-0.1-0.9,0.2c-0.5,0.3-0.7,0.7-0.7,1c0,0.4,0.2,0.5,0.9,0.5
						c0.9,0,1.3,0.4,1.3,1.4c0,0.9-0.5,1.9-1.2,2.5l0,0.9c0,0.1-0.1,0.2-0.1,0.3l-0.5,0.3c-0.1,0-0.1,0-0.1-0.1l0-0.8
						c-0.4,0.2-0.9,0.2-1.2,0.1c-0.1,0-0.1-0.1-0.1-0.2l0.2-0.8c0-0.1,0-0.1,0.1-0.2c0,0,0,0,0,0c0,0,0.1,0,0.1,0
						c0.3,0.1,0.7,0.1,1.1-0.1c0.5-0.2,0.8-0.7,0.8-1.2c0-0.4-0.2-0.6-0.8-0.6c-0.7,0-1.4-0.1-1.4-1.2c0-0.9,0.5-1.8,1.2-2.4l0-0.9
						c0-0.1,0.1-0.2,0.1-0.3L20,17.6z"/>
				</g>
			</g>
		</g>
		<g>
		</g>
		<g>
		</g>
		<g>
		</g>
		<g>
		</g>
		<g>
		</g>
		<g>
		</g>
	</g>
</switch>
</svg>
