<?xml version="1.0" encoding="UTF-8"?>
<svg width="306px" height="344.35px" enable-background="new 0 0 306 344.35" version="1.1" viewBox="0 0 306 344.35" xml:space="preserve" xmlns="http://www.w3.org/2000/svg" xmlns:cc="http://creativecommons.org/ns#" xmlns:dc="http://purl.org/dc/elements/1.1/" xmlns:rdf="http://www.w3.org/1999/02/22-rdf-syntax-ns#"><metadata><rdf:RDF><cc:Work rdf:about=""><dc:format>image/svg+xml</dc:format><dc:type rdf:resource="http://purl.org/dc/dcmitype/StillImage"/><dc:title/></cc:Work></rdf:RDF></metadata>
<path d="m302.11 258.26c2.401-4.159 3.893-8.845 3.893-13.053v-146.07c0-4.208-1.49-8.893-3.892-13.052l-149.11 86.087 149.11 86.087z" fill="#00599C"/>
<path d="m166.25 341.19 126.5-73.034c3.644-2.104 6.956-5.737 9.357-9.897l-149.11-86.087-149.11 86.088c2.401 4.159 5.714 7.793 9.357 9.896l126.5 73.034c7.287 4.208 19.213 4.208 26.5 0z" fill="#004482"/>
<path d="m302.11 86.087c-2.402-4.16-5.715-7.793-9.358-9.897l-126.5-73.034c-7.287-4.208-19.213-4.208-26.5 0l-126.5 73.034c-7.288 4.207-13.25 14.535-13.25 22.95v146.07c0 4.208 1.491 8.894 3.893 13.053l298.22-172.18z" fill="#659AD2"/>

	<path d="m153 274.18c-56.243 0-102-45.757-102-102s45.757-102 102-102c36.292 0 70.139 19.53 88.331 50.968l-44.143 25.544c-9.105-15.736-26.038-25.512-44.188-25.512-28.122 0-51 22.878-51 51 0 28.121 22.878 51 51 51 18.152 0 35.085-9.776 44.191-25.515l44.143 25.543c-18.192 31.441-52.04 50.972-88.334 50.972z" fill="#fff"/>



</svg>
