<?xml version="1.0" encoding="UTF-8" standalone="no"?>
<svg
   xmlns:dc="http://purl.org/dc/elements/1.1/"
   xmlns:cc="http://creativecommons.org/ns#"
   xmlns:rdf="http://www.w3.org/1999/02/22-rdf-syntax-ns#"
   xmlns:svg="http://www.w3.org/2000/svg"
   xmlns="http://www.w3.org/2000/svg"
   xmlns:sodipodi="http://sodipodi.sourceforge.net/DTD/sodipodi-0.dtd"
   xmlns:inkscape="http://www.inkscape.org/namespaces/inkscape"
   viewBox="-26 -20 455 512"
   fill="#ffffff"
   version="1.1"
   id="svg940"
   sodipodi:docname="csharp.svg"
   width="455"
   height="512"
   inkscape:version="1.0.1 (3bc2e813f5, 2020-09-07)">
  <metadata
     id="metadata946">
    <rdf:RDF>
      <cc:Work
         rdf:about="">
        <dc:format>image/svg+xml</dc:format>
        <dc:type
           rdf:resource="http://purl.org/dc/dcmitype/StillImage" />
        <dc:title></dc:title>
      </cc:Work>
    </rdf:RDF>
  </metadata>
  <defs
     id="defs944" />
  <sodipodi:namedview
     pagecolor="#ffffff"
     bordercolor="#666666"
     borderopacity="1"
     objecttolerance="10"
     gridtolerance="10"
     guidetolerance="10"
     inkscape:pageopacity="0"
     inkscape:pageshadow="2"
     inkscape:window-width="1212"
     inkscape:window-height="622"
     id="namedview942"
     showgrid="false"
     inkscape:zoom="0.76992754"
     inkscape:cx="273.11397"
     inkscape:cy="300.59905"
     inkscape:window-x="478"
     inkscape:window-y="251"
     inkscape:window-maximized="0"
     inkscape:current-layer="svg940" />
  <linearGradient
     id="d"
     x1="121.0946"
     x2="261.77249"
     y1="55.8074"
     y2="235.867"
     gradientUnits="userSpaceOnUse">
    <stop
       offset="0"
       stop-color="#a47ede"
       id="stop912" />
    <stop
       offset="1"
       stop-color="#9866d3"
       id="stop914" />
  </linearGradient>
  <linearGradient
     id="b"
     x1="314.17542"
     x2="443.46381"
     y1="207.291"
     y2="372.77261"
     gradientUnits="userSpaceOnUse">
    <stop
       offset="0"
       stop-color="#3b009b"
       id="stop917" />
    <stop
       offset="1"
       stop-color="#390086"
       id="stop919" />
  </linearGradient>
  <linearGradient
     id="c"
     x1="115.2882"
     x2="252.74049"
     y1="326.16309"
     y2="502.09399"
     gradientUnits="userSpaceOnUse">
    <stop
       offset="0"
       stop-color="#340084"
       id="stop922" />
    <stop
       offset="1"
       stop-color="#290064"
       id="stop924" />
  </linearGradient>
  <clipPath
     id="a">
    <path
       d="M 435.279,113.284 247.191,4.692 c -10.835,-6.257 -28.567,-6.257 -39.402,0 L 19.701,113.284 C 8.865,119.539 0,134.896 0,147.408 v 217.185 c 0.843,14.571 8.286,26.639 19.701,34.123 l 188.088,108.592 c 10.835,6.257 28.567,6.257 39.402,0 L 435.279,398.716 c 12.248,-8.146 19.219,-20.408 19.701,-34.123 V 147.408 c -0.44,-13.165 -8.323,-26.443 -19.701,-34.124 z"
       id="path927" />
  </clipPath>
  <g
     id="g2125"
     transform="translate(-26,-19.99925)">
    <g
       clip-path="url(#a)"
       id="g936">
      <path
         fill="url(#b)"
         d="M 222.588,124.487 H 490.052 V 397.98 H 222.588 Z"
         id="path930"
         style="fill:url(#b)" />
      <path
         fill="url(#c)"
         d="M 490.052,407.802 145.845,208.63 H -29.911 v 329.723 h 519.963 z"
         id="path932"
         style="fill:url(#c)" />
      <path
         fill="url(#d)"
         d="M -29.911,405.093 490.052,104.208 V -14.513 H -29.911 Z"
         id="path934"
         style="fill:url(#d)" />
    </g>
    <path
       d="M 75.83,256.001 C 74.939,107.912 273.289,42.522 358.826,180.123 l -65.635,37.98 C 253.569,152.569 155.19,176.002 151.659,256 c 1.06,73.729 97.754,107.978 141.536,37.893 l 65.635,37.979 C 283.448,462.735 79.632,415.653 75.83,256.001 Z M 326,213 h 12.5 l -8.541,82.5 h -12.735 z m 26.776,0 h 12.5 l -8.541,82.5 H 344 Z M 312,232.592 h 62.5 v 12.072 H 312 Z M 308.5,262 H 371 v 12.072 h -62.5 z"
       id="path938" />
  </g>
</svg>
