<svg xmlns="http://www.w3.org/2000/svg" xmlns:xlink="http://www.w3.org/1999/xlink" viewBox="0 0 66 41" fill="#fff" fill-rule="evenodd" stroke="#000" stroke-linecap="round" stroke-linejoin="round"><use xlink:href="#A" x=".5" y=".5"/><symbol id="A" overflow="visible"><path d="M25.98 6.947a.61.61 0 0 0 0-.852L20.06.175a.61.61 0 0 0-.852 0L.173 19.199a.61.61 0 0 0 0 .852l19.034 19.034a.61.61 0 0 0 .852 0l5.92-5.92a.61.61 0 0 0 0-.852L13.73 20.059a.61.61 0 0 1 0-.852zM44.802.173a.61.61 0 0 0-.852 0l-19.008 19a.61.61 0 0 0 0 .852l5.92 5.93a.61.61 0 0 0 .852 0L43.95 13.721a.61.61 0 0 1 .852 0l5.478 5.478a.61.61 0 0 1 0 .852l-12.25 12.25a.61.61 0 0 0 0 .852l5.92 5.92a.61.61 0 0 0 .852 0l19.025-19.024a.61.61 0 0 0 0-.852z" stroke="none" fill="#f93535" fill-rule="nonzero"/></symbol></svg>