<?xml version="1.0" encoding="UTF-8" standalone="no"?>
<svg
   xmlns:dc="http://purl.org/dc/elements/1.1/"
   xmlns:cc="http://creativecommons.org/ns#"
   xmlns:rdf="http://www.w3.org/1999/02/22-rdf-syntax-ns#"
   xmlns:svg="http://www.w3.org/2000/svg"
   xmlns="http://www.w3.org/2000/svg"
   xmlns:xlink="http://www.w3.org/1999/xlink"
   viewBox="0 0 75.760003 75.76"
   version="1.1"
   id="svg1002"
   width="75.760002"
   height="75.760002">
  <metadata
     id="metadata1006">
    <rdf:RDF>
      <cc:Work
         rdf:about="">
        <dc:format>image/svg+xml</dc:format>
        <dc:type
           rdf:resource="http://purl.org/dc/dcmitype/StillImage" />
        <dc:title>Jira Software-blue</dc:title>
      </cc:Work>
    </rdf:RDF>
  </metadata>
  <defs
     id="defs966">
    <style
       id="style958">.cls-1{fill:#253858;}.cls-2{fill:#2684ff;}.cls-3{fill:url(#linear-gradient);}.cls-4{fill:url(#linear-gradient-2);}</style>
    <linearGradient
       id="linear-gradient"
       x1="34.639999"
       y1="15.35"
       x2="19"
       y2="30.99"
       gradientUnits="userSpaceOnUse">
      <stop
         offset="0.18"
         stop-color="#0052cc"
         id="stop960" />
      <stop
         offset="1"
         stop-color="#2684ff"
         id="stop962" />
    </linearGradient>
    <linearGradient
       id="linear-gradient-2"
       x1="38.779999"
       y1="60.279999"
       x2="54.389999"
       y2="44.669998"
       xlink:href="#linear-gradient"
       gradientTransform="translate(-73.011854,-4.5632409)" />
    <linearGradient
       xlink:href="#linear-gradient"
       id="linearGradient1569"
       gradientUnits="userSpaceOnUse"
       x1="34.639999"
       y1="15.35"
       x2="19"
       y2="30.99"
       gradientTransform="translate(-73.011854,-4.5632409)" />
  </defs>
  <title
     id="title968">Jira Software-blue</title>
  <g
     id="g1605"
     transform="translate(74.251714,4.5632409)">
    <path
       class="cls-2"
       d="m -0.611854,31.196759 -32.6,-32.5999999 -3.16,-3.16 v 0 l -24.54,24.5399999 v 0 l -11.22,11.22 a 3,3 0 0 0 0,4.24 l 22.42,22.42 13.34,13.34 24.54,-24.54 0.38,-0.38 10.84,-10.84 a 3,3 0 0 0 0,-4.24 z m -35.76,13.32 -11.2,-11.2 11.2,-11.2 11.2,11.2 z"
       id="path994" />
    <path
       class="cls-3"
       d="m -36.371854,22.116759 a 18.86,18.86 0 0 1 -0.08,-26.5899999 l -24.51,24.4999999 13.34,13.34 z"
       id="path996"
       style="fill:url(#linearGradient1569)" />
    <path
       class="cls-4"
       d="m -25.141854,33.286759 -11.23,11.23 a 18.86,18.86 0 0 1 0,26.68 v 0 l 24.57,-24.57 z"
       id="path998"
       style="fill:url(#linear-gradient-2)" />
  </g>
</svg>
