<?xml version="1.0" encoding="UTF-8"?>
<svg width="190" height="190" version="1.1" viewBox="0 0 190 190" xml:space="preserve" xmlns="http://www.w3.org/2000/svg" xmlns:cc="http://creativecommons.org/ns#" xmlns:dc="http://purl.org/dc/elements/1.1/" xmlns:rdf="http://www.w3.org/1999/02/22-rdf-syntax-ns#"><metadata><rdf:RDF><cc:Work rdf:about=""><dc:format>image/svg+xml</dc:format><dc:type rdf:resource="http://purl.org/dc/dcmitype/StillImage"/><dc:title>benefit-eclipse_mosquitto</dc:title></cc:Work></rdf:RDF></metadata>
<style type="text/css">
	.st0{fill:#F3771C;}
	.st1{fill:#3C5280;}
</style>
<title>benefit-eclipse_mosquitto</title>
<g id="Layer_1_1_" transform="translate(-170,-1.9)">
	
		<path class="st0" d="m274.6 178.2-2.7-3.4c4.3-4.8 3.8-12.1-1-16.4s-12.1-3.8-16.4 1-3.8 12.1 1 16.4c4.1 3.6 10.1 3.9 14.5 0.7l3.1 3 11.4 11.1zm-6.2-7.8-1.8-2.3c0.6-1.8-0.5-3.8-2.3-4.4s-3.8 0.5-4.4 2.3 0.5 3.8 2.3 4.4c0.6 0.2 1.2 0.2 1.7 0.1l2.1 2.1c-3 1.6-6.7 0.4-8.3-2.7-1.6-3-0.4-6.7 2.7-8.3 3-1.6 6.7-0.4 8.3 2.7 1 1.9 0.9 4.2-0.3 6.1z"/>
		<path class="st1" d="m218.8 155.6c2 0 4 0.5 5.8 1.5 3.6 2 5.8 5.8 5.8 9.9 0 2-0.5 4-1.5 5.8s-2.4 3.2-4.2 4.2-3.8 1.5-5.8 1.5c-3 0-5.9-1.2-8-3.3-4.5-4.5-4.4-11.9 0.1-16.3l0.3-0.3c2-1.9 4.7-3 7.5-3zm60.3 0.6h5.5v10.5c-0.1 1.4 0.1 2.9 0.4 4.3 0.2 0.7 0.7 1.4 1.4 1.9s1.5 0.7 2.3 0.7 1.6-0.2 2.3-0.6c0.7-0.5 1.2-1.1 1.4-1.9 0.3-1.3 0.4-2.7 0.3-4v-10.7h5.5v9.2c0 3.8-0.3 6.4-0.9 7.8-0.7 1.6-1.8 3-3.2 3.9-1.6 1-3.5 1.4-5.4 1.4-2.1 0.1-4.1-0.5-5.8-1.6-1.5-1.1-2.6-2.7-3.1-4.5-0.5-2.4-0.8-4.8-0.6-7.2zm69.3-0.6c2 0 4 0.5 5.8 1.5 3.6 2 5.8 5.8 5.8 9.9 0 2-0.5 4-1.5 5.8s-2.4 3.2-4.2 4.2-3.8 1.5-5.8 1.5c-3 0-5.9-1.2-8-3.3-4.5-4.5-4.4-11.9 0.1-16.3l0.3-0.3c2-1.9 4.7-3 7.5-3zm0.1 5.2c-1.6 0-3.1 0.6-4.2 1.8s-1.8 2.9-1.7 4.5c-0.1 1.7 0.5 3.4 1.7 4.6 1.1 1.2 2.6 1.8 4.2 1.8s3.2-0.6 4.3-1.8c2.3-2.6 2.3-6.5 0-9.1-1.1-1.2-2.7-1.9-4.3-1.8zm-21.9-12.6h5.4v8h3.2v4.7h-3.2v17.1h-5.4v-17.1h-2.8v-4.7h2.8zm-12.3 0h5.4v8h3.2v4.7h-3.2v17.1h-5.4v-17.1h-2.8v-4.7h2.8zm-8.4-1c0.9 0 1.8 0.4 2.5 1 0.7 0.7 1 1.6 1 2.5s-0.3 1.8-1 2.5c-0.6 0.7-1.5 1-2.4 1s-1.8-0.4-2.5-1.1-1.1-1.6-1-2.5c-0.1-1.8 1.5-3.4 3.4-3.4zm-2.7 9h5.5v21.8h-5.5zm-133.2 0h5.5v2.5c0.9-1 1.9-1.8 3.1-2.3s2.4-0.8 3.7-0.8 2.6 0.3 3.7 1 2.1 1.7 2.6 2.9c0.8-1.2 1.9-2.2 3.2-2.9s2.7-1 4.1-1 2.9 0.3 4.1 1.1c1.1 0.7 2 1.6 2.5 2.8 0.6 1.8 0.9 3.7 0.8 5.7v12.8h-5.5v-11.1c0-2.5-0.3-4.1-0.9-5s-1.7-1.4-2.8-1.3c-0.9 0-1.8 0.3-2.5 0.8-0.8 0.6-1.3 1.3-1.7 2.2-0.4 1.5-0.6 3-0.5 4.5v9.8h-5.4v-10.6c0.1-1.4-0.1-2.9-0.4-4.2-0.2-0.8-0.7-1.5-1.3-1.9s-1.3-0.7-2.1-0.6c-0.9 0-1.8 0.3-2.5 0.8-0.8 0.6-1.3 1.4-1.7 2.3-0.4 1.5-0.6 3.1-0.6 4.6v9.7h-5.4zm78.2 3-3.4 3.4c-1.4-1.4-2.6-2-3.7-2-0.5 0-1 0.1-1.4 0.4-0.3 0.2-0.5 0.6-0.5 1 0 0.3 0.1 0.6 0.3 0.8 0.5 0.4 1 0.8 1.6 1l2 1c1.7 0.7 3.2 1.8 4.3 3.2 1.9 2.7 1.5 6.4-0.9 8.7-1.6 1.4-3.6 2-5.7 1.9-3 0.1-5.8-1.3-7.6-3.7l3.4-3.7c0.6 0.7 1.4 1.4 2.2 1.8 0.7 0.4 1.5 0.6 2.3 0.7 0.6 0 1.2-0.2 1.7-0.5 0.4-0.3 0.6-0.7 0.7-1.2 0-0.8-0.8-1.7-2.4-2.5l-1.8-0.9c-3.5-1.8-5.3-4-5.3-6.7 0-1.7 0.7-3.3 2-4.4 1.4-1.3 3.2-1.9 5.1-1.8 2.8-0.1 5.4 1.3 7.1 3.5zm-29.3 1.6c-1.6 0-3.1 0.6-4.2 1.8s-1.8 2.9-1.7 4.5c-0.1 1.7 0.5 3.4 1.7 4.6 1.1 1.2 2.6 1.8 4.2 1.8s3.2-0.6 4.3-1.8c2.3-2.6 2.3-6.5 0-9.1-1.1-1.2-2.7-1.9-4.3-1.8z"/>
		<path class="st0" d="m265 147.7 2.6-36.1 2.1-29.3c6.3-2.6 9.2-9.9 6.6-16.1-2.6-6.3-9.9-9.2-16.1-6.6-6.3 2.6-9.2 9.9-6.6 16.1 1.2 3 3.6 5.3 6.6 6.6l2.1 29.3z"/>
		<path class="st1" d="m180.9 70.9c0 20.4 7.4 40.1 20.8 55.4l-8 7.1c-33.2-37.8-31-95 4.9-130.2l0.4 0.4 23.5 21.1c-22 20.2-26.8 53.1-11.3 78.7l8.1-7.3c-11.8-21.4-7.1-48.1 11.2-64.2l15.3 13.6 7.4 6.7c-2.8 1.7-5.1 4.1-6.9 6.9-6.5 10.3-3.5 23.9 6.8 30.4 1.5 0.9 3.1 1.7 4.8 2.3l0.8 10.2c-17.2-3.5-28.3-20.2-24.8-37.4 0.9-4.3 2.7-8.5 5.2-12.1l-7.1-6.4c-11.6 15.5-11 37 1.6 51.7l-23.9 21.4c-23.5-26.9-24.2-66.8-1.7-94.5l-8-7.1c-11.3 13.7-18 30.7-19 48.5v0.1c0 1.5-0.1 3.1-0.1 4.7zm91.2 20.8c11.5-3.9 17.7-16.4 13.8-27.9-1.6-4.8-4.9-8.9-9.2-11.6l7.4-6.7 15.3-13.6c18.3 16.1 23 42.8 11.2 64.2l8.1 7.3c15.4-25.6 10.7-58.5-11.3-78.7l23.5-21.1 0.4-0.4c36 35.2 38.1 92.4 4.9 130.2l-8-7.1c13.4-15.3 20.8-35 20.8-55.4 0-1.6 0-3.2-0.1-4.8v-0.1c-1-17.8-7.7-34.8-19-48.5l-8 7.1c22.5 27.7 21.8 67.6-1.7 94.5l-23.9-21.4c12.7-14.7 13.4-36.2 1.7-51.7l-7.1 6.4c10.1 14.3 6.8 34.1-7.5 44.3-3.6 2.6-7.7 4.3-12.1 5.2z"/>
	
</g>
</svg>
