<?xml version="1.0" encoding="UTF-8"?>
<svg width="56.7" height="56.7" version="1.1" viewBox="0 0 56.7 56.7" xml:space="preserve" xmlns="http://www.w3.org/2000/svg" xmlns:cc="http://creativecommons.org/ns#" xmlns:dc="http://purl.org/dc/elements/1.1/" xmlns:rdf="http://www.w3.org/1999/02/22-rdf-syntax-ns#"><metadata><rdf:RDF><cc:Work rdf:about=""><dc:format>image/svg+xml</dc:format><dc:type rdf:resource="http://purl.org/dc/dcmitype/StillImage"/><dc:title/></cc:Work></rdf:RDF></metadata>
<style type="text/css">
	.st0{fill:#563B96;}
	.st1{fill:#FFFFFF;}
</style>
<path class="st0" d="m25.5 40.5c0.9 0.2 1.9 0.3 2.9 0.3 6.9 0 12.5-5.6 12.5-12.5s-5.6-12.5-12.5-12.5-12.5 5.6-12.5 12.5c0 1 0.1 1.9 0.3 2.8l-7.7-7.7c2.7-10.9 13.7-17.6 24.7-15s17.6 13.7 15 24.7c-1.1 4.5-3.7 8.5-7.4 11.3l5.7 5.7c12-10 13.6-27.8 3.6-39.8s-27.9-13.6-39.9-3.5-13.6 27.8-3.5 39.8c8 9.6 21.3 12.8 32.8 7.9z"/><path class="st1" d="m40.8 44.5 5.7 5.7c-2.1 1.8-4.5 3.2-7 4.3l-14-14c0.9 0.2 1.9 0.3 2.8 0.3 6.9 0 12.5-5.5 12.5-12.4s-5.5-12.5-12.4-12.5-12.5 5.5-12.5 12.4v0.1c0 1 0.1 1.9 0.3 2.9l-7.7-7.7c2.7-10.9 13.7-17.6 24.7-15s17.6 13.7 15 24.7c-1.1 4.4-3.7 8.4-7.4 11.2z"/><path class="st1" d="m29.2 48.7h-0.9c-11.2 0-20.3-9.1-20.4-20.4 0-0.3 0-0.6 0.1-0.9z"/>
</svg>
