<?xml version="1.0" encoding="UTF-8"?>
<svg width="1007" height="975" version="1.1" viewBox="0 0 77.642 75.175" xmlns="http://www.w3.org/2000/svg" xmlns:cc="http://creativecommons.org/ns#" xmlns:dc="http://purl.org/dc/elements/1.1/" xmlns:rdf="http://www.w3.org/1999/02/22-rdf-syntax-ns#">
 <metadata>
  <rdf:RDF>
   <cc:Work rdf:about="">
    <dc:format>image/svg+xml</dc:format>
    <dc:type rdf:resource="http://purl.org/dc/dcmitype/StillImage"/>
    <dc:title/>
   </cc:Work>
  </rdf:RDF>
 </metadata>
 <path d="m0 0h192.76v192.76h-192.76z" clip-rule="evenodd" fill="#fff" fill-opacity="0" fill-rule="evenodd"/>
 <g transform="translate(-12.268 -41.381)" clip-rule="evenodd" fill="#c9222f" fill-rule="evenodd">
  <path d="m48.571 78.51c-10.208-3.019-21.334-0.395-23.032 0.055-2.57 0.681-4.075 1.368-3.97 2.172 0.08 0.595 0.736 1.005 3.894 0.926 7.527-0.183 13.763 0.073 17.705 1.176 4.882 1.363 5.483 3.877 3.065 8.817-1.118 2.282-2.771 4.641-5.274 7.148-4.998 5.015-11.245 8.277-14.764 10.06-3.421 1.736-4.673 0.813-4.293-0.899 0.468-2.097 10.175-18.896 10.175-18.896 0.73-1.275 0.859-2.473 0-2.831-0.736-0.313-2.07 0.721-3.456 2.324-5.666 6.58-16.116 26.601-16.31 27.257-0.191 0.629 0.301 0.709 0.488 0.713 4.424-0.034 31.584-8.067 40.347-24.485 4.618-8.645 2.282-11.506-4.575-13.537z"/>
  <path d="m62.1 70.613c-5.484 4.743 2.649 12.556 6.472 17.034 3.724 4.354 8.229 9.882 8.439 11.779 0.097 0.87-0.077 1.859-1.12 2.506-1.703 1.062-8.735 2.091-23.284 2.078-3.158-2e-3 -3.802 0.305-3.881 0.871-0.045 0.296-0.142 0.981 3.873 1.99 0.11 0.03 16.674 3.076 25.507 0 9.025-3.078 6.754-8.277 5.135-11.279-2.492-4.626-13.995-18.074-14.943-19.901-0.887-1.712 0.406-2.462 0.406-2.462s1.924-2.314 17.26-2.181c3.16 0.023 3.816-0.308 3.89-0.876 0.062-0.47-0.839-1.492-3.845-2.136-2.836-0.608-17.332-3.109-23.909 2.577z"/>
  <path d="m42.318 42.685c-1.224 0.358-3.688 1.037-3.48 1.937 0.133 0.576 0.622 0.85 3.486 0.848 6.404-8e-3 11.383 0.408 14.792 1.02 6.934 1.252 5.3 4.751 3.329 8.101-4.78 8.151-17.695 17.323-18.445 17.842-0.985 0.678-0.446 1.072 0.415 0.753 10.471-3.895 21.022-10.611 25.284-18.771 3.615-6.921 1.023-10.203-4.487-11.751-9.837-2.768-20.035-0.232-20.894 0.021z"/>
 </g>
</svg>
