<?xml version="1.0" encoding="UTF-8"?>
<svg width="669.5" height="407.5" version="1.0" xmlns="http://www.w3.org/2000/svg" xmlns:cc="http://creativecommons.org/ns#" xmlns:dc="http://purl.org/dc/elements/1.1/" xmlns:rdf="http://www.w3.org/1999/02/22-rdf-syntax-ns#">
 <metadata>
  <rdf:RDF>
   <cc:Work rdf:about="">
    <dc:format>image/svg+xml</dc:format>
    <dc:type rdf:resource="http://purl.org/dc/dcmitype/StillImage"/>
    <dc:title/>
   </cc:Work>
  </rdf:RDF>
 </metadata>
 <g transform="translate(-33.667 -298.73)" fill-rule="evenodd">
  <path class="ps00" d="m222.69 298.73h555.07l-190.88 432.97-553.22-0.24741 189.02-432.73" fill="#fff"/>
  <path d="m536.78 432.58h107.5l-121.48 273.39h-106.88l120.86-273.39m139.91-73.976h-440.89l-4.9483 0.49483-5.1957 0.74224-5.3194 0.98965-2.5978 0.24741-2.8452 1.1134-4.206 1.2371-4.5771 1.3608-2.3504 1.4845-3.0927 1.3608-4.0823 1.7319-3.5875 2.3504-7.0513 3.8349-6.4327 4.7008-3.0927 2.4741-3.3401 3.0927-2.5978 3.0927-2.7215 2.8452-3.0927 4.206-2.8452 4.3297-1.8556 2.3504-1.2371 2.5978-2.8452 4.8246-2.3504 4.7008-1.8556 4.3297-1.7319 5.4431-1.8556 7.175-1.2371 6.1853-1.1134 6.4327v14.226l1.1134 5.9379 1.2371 6.1853 1.8556 6.4327 1.2371 4.3297 1.6082 4.206 1.2371 3.5875 2.3504 4.0823 2.3504 3.8349 2.2267 3.7112 2.103 3.5875 2.8452 4.0823 3.5875 3.8349 3.5875 4.206 2.103 1.7319 1.2371 1.3608 0.86594 0.98966 0.49483 0.49482 83.254 78.059 1.2371 1.3608 1.6082 1.7319 1.7319 3.9586 0.74224 2.8452 0.61853 1.7319 0.49483 2.3504-0.49483 2.103-0.61853 2.8452-0.74224 1.9793-1.4845 2.3504-1.8556 2.8452-0.74224 1.2371-1.8556 0.86595-1.4845 1.4845-1.3608 0.24742-2.2267 1.6082-2.3504 0.74224-2.3504 0.49483h-216.24l146.96-333.27h522.41l-26.349 59.874m-219.58 73.976-120.61 273.39h-54.307l-1.6082-0.49482-1.2371-0.24742-1.1134-1.6082 0.49483-1.2371 1.1134-1.3608 1.2371-0.98965 0.49483-0.24741 5.9379-2.3504 4.9483-2.5978 5.1957-3.3401 5.3194-3.8349 5.9379-4.5771 5.1957-4.4534 4.5771-4.5771 4.4534-5.6905 4.5771-6.4327 3.5875-5.6905 2.8452-6.4327 1.3608-3.0927 1.4845-3.8349 2.103-6.5564 1.4845-5.3194 0.86595-5.6905 0.49482-6.9276 0.49483-7.0513-0.49483-6.4327-0.98965-6.1853-1.3608-7.175-0.74224-3.5875-0.98965-3.5875-2.3504-6.1853-2.5978-6.4327-3.8349-6.8039-3.5875-5.3194-4.206-5.4431-1.7319-2.103-1.3608-1.7319-0.98965-1.3608-0.49482-0.49482-88.945-83.502-1.6082-1.8556-1.7319-2.2267-1.8556-3.0927-0.49483-3.5875-0.24741-1.8556 0.24741-1.8556v-2.2267l0.49483-1.8556 1.3608-3.0927 1.7319-3.5875 2.8452-2.5978 3.3401-2.3504 3.5875-1.2371 1.8556-0.49483h1.8556l1.7319-0.49482h216.24" fill="#0a7efc"/>
 </g>
</svg>
