<?xml version="1.0" encoding="UTF-8"?>
<svg width="200" height="200" fill="none" version="1.1" viewBox="0 0 200 200" xmlns="http://www.w3.org/2000/svg" xmlns:cc="http://creativecommons.org/ns#" xmlns:dc="http://purl.org/dc/elements/1.1/" xmlns:rdf="http://www.w3.org/1999/02/22-rdf-syntax-ns#">
 <metadata>
  <rdf:RDF>
   <cc:Work rdf:about="">
    <dc:format>image/svg+xml</dc:format>
    <dc:type rdf:resource="http://purl.org/dc/dcmitype/StillImage"/>
    <dc:title/>
   </cc:Work>
  </rdf:RDF>
 </metadata>
 <path d="m117.09 86.564c-4.1282 3.7701-17.8 15.744-17.794 15.739-5.7137 5.087-9.4627 8.716-12.087 11.858-0.1533-0.076-22.242-11.951-24.029-13.087 1.5664-3.7044 3.6689-8.6034 5.1727-11.826 2.6974-5.7802 7.7875-14.647 7.7875-14.647s-4.6059-6.9363-10.386-14.643c-5.7802-7.707-13.872-14.643-21.58-14.643-7.7069 0-14.357 17.73-14.357 17.73s-0.7707 11.946 9.2483 24.662c9.3637 11.885 20.41 17.711 21.815 18.422 1.776 1.043 22.099 11.949 23.072 12.437-9.3592 14.214-11.778 32.934-7.8136 48.791 0.7397 2.959 1.9944 6.202 3.6971 9.695 1.5804 3.241 3.5197 6.643 5.7392 10.143 2.1796 3.437 4.5106 6.784 6.8418 9.913 0.6903 0.927 1.3394 1.778 1.9359 2.545-12.648-1.167-23.996-7.488-31.396-12.141-50.866-31.984-57.703-90.175-31.5-136.8 17.06-30.357 46.914 20.427 46.914 20.427s12.331-20.038 38.15-44.7c2.198 3.3447 3.853 7.3216 6.268 12.192 10.786-31.078 14.927-37.421 21.862-37.625 19.155-0.56339 50.095 62.812 34.681 120.61-10.339 38.77-52.416 75.272-77.909 78.056-2.1269-2.565-3.8898-4.729-4.6787-5.788-2.2554-3.027-4.5109-6.266-6.6121-9.579-2.1189-3.341-3.9612-6.573-5.4457-9.618-1.5503-3.18-2.6742-6.085-3.3127-8.639-3.8937-15.575-1.0146-34.289 9.1488-47.403 2.3873-3.081 6.1571-6.79 12.361-12.313-0.0423 0.038 13.668-11.97 17.845-15.785 18.385-16.792 29.183-30.229 33.071-44.116 5.349-16.552 5.307-29.632 3.667-31.944 0 0-7.42-10.015-12.43-9.6299-5.009 0.38535-9.535 10.401-10.305 12.327-0.771 1.9267-4.239 10.79-9.634 25.048 0.849 1.9097 3.625 8.9042 6.452 15.803 1.313 3.2048 2.612 6.8703 3.71 10.008-4.827 5.7532-10.87 11.853-18.169 18.521z" clip-rule="evenodd" fill="#ff8f00" fill-rule="evenodd"/>
</svg>
