<?xml version="1.0" encoding="UTF-8"?>
<svg width="186" height="186" version="1.1" viewBox="0 0 186 186" xmlns="http://www.w3.org/2000/svg" xmlns:cc="http://creativecommons.org/ns#" xmlns:dc="http://purl.org/dc/elements/1.1/" xmlns:rdf="http://www.w3.org/1999/02/22-rdf-syntax-ns#">
 <title>U-Boot Logo</title>
 <metadata>
  <rdf:RDF>
   <cc:Work rdf:about="">
    <dc:format>image/svg+xml</dc:format>
    <dc:type rdf:resource="http://purl.org/dc/dcmitype/StillImage"/>
    <dc:title>U-Boot Logo</dc:title>
    <cc:license rdf:resource="http://creativecommons.org/licenses/by-sa/4.0/"/>
    <dc:creator>
     <cc:Agent>
      <dc:title>Heinrich Schuchardt &lt;xypron.glpk@gmx.de&gt;</dc:title>
     </cc:Agent>
    </dc:creator>
    <dc:date>May 21st, 2018</dc:date>
   </cc:Work>
   <cc:License rdf:about="http://creativecommons.org/licenses/by-sa/4.0/">
    <cc:permits rdf:resource="http://creativecommons.org/ns#Reproduction"/>
    <cc:permits rdf:resource="http://creativecommons.org/ns#Distribution"/>
    <cc:requires rdf:resource="http://creativecommons.org/ns#Notice"/>
    <cc:requires rdf:resource="http://creativecommons.org/ns#Attribution"/>
    <cc:permits rdf:resource="http://creativecommons.org/ns#DerivativeWorks"/>
    <cc:requires rdf:resource="http://creativecommons.org/ns#ShareAlike"/>
   </cc:License>
  </rdf:RDF>
 </metadata>
 <g transform="translate(0,58)">
  <circle cx="93" cy="35" r="93" fill="#046"/>
  <path d="m116 18a20 20 0 0 1-20-20 20 20 0 0 1 20-20v11a9 9 0 0 0-9 9 9 9 0 0 0 9 9z" fill="#fc8"/>
  <path d="m116 8a10 10 0 0 1-10-10 10 10 0 0 1 10-10v1a9 9 0 0 0-9 9 9 9 0 0 0 9 9z" fill="#fc8"/>
  <g fill="#d95">
   <ellipse cx="116" cy="-16.5" rx="4" ry="5.5"/>
   <circle cx="86" cy="8" r="10"/>
   <circle cx="126" cy="8" r="10"/>
   <rect x="86.5" y="-2" width="39" height="20"/>
   <rect x="76" y="8.5" width="60" height="9.5"/>
   <circle cx="36" cy="23" r="15"/>
   <circle cx="36" cy="63" r="15"/>
  </g>
  <g stroke-width="0">
   <ellipse cx="15" cy="33" rx="4" ry="10" fill="#fc8"/>
   <ellipse cx="15" cy="53" rx="4" ry="10" fill="#fc8"/>
   <rect x="11" y="41" width="65" height="4" fill="#d95"/>
   <ellipse cx="100.5" cy="42.5" rx="74.5" ry="34.5" fill="#fc8"/>
  </g>
  <ellipse cx="70" cy="37.5" rx="15" ry="12.5" fill="#d95"/>
  <ellipse cx="70" cy="37.5" rx="14" ry="11.5" fill="#fc8"/>
  <ellipse cx="70" cy="37.5" rx="11" ry="8.5" fill="#d95"/>
  <ellipse cx="110" cy="37.5" rx="15" ry="12.5" fill="#d95"/>
  <ellipse cx="110" cy="37.5" rx="14" ry="11.5" fill="#fc8"/>
  <ellipse cx="110" cy="37.5" rx="11" ry="8.5" fill="#d95"/>
  <ellipse cx="150" cy="37.5" rx="15" ry="12.5" fill="#d95"/>
  <ellipse cx="150" cy="37.5" rx="14" ry="11.5" fill="#fc8"/>
  <ellipse cx="150" cy="37.5" rx="11" ry="8.5" fill="#d95"/>
 </g>
</svg>
