<?xml version="1.0" encoding="UTF-8"?>
<svg width="288" height="49.75" version="1.1" viewBox="0 0 76.2 13.163" xmlns="http://www.w3.org/2000/svg">
 <defs>
  <clipPath id="clipPath244">
   <path d="m36 588.03h216v37.486h-216z"/>
  </clipPath>
 </defs>
 <g transform="matrix(.35278 0 0 -.35278 -12.7 220.61)">
  <g clip-path="url(#clipPath244)">
   <g transform="matrix(.64505 0 0 -.64383 -60.327 742.23)">
    <g transform="translate(251.28 226.29)">
     <path d="m0 0c0 1.761-0.334 3.442-1 5.042-0.668 1.602-1.589 3.002-2.762 4.203-1.174 1.2-2.549 2.161-4.122 2.881-1.574 0.721-3.269 1.081-5.082 1.081-1.549 0-3.122-0.214-4.723-0.641-1.601-0.426-3.041-1.16-4.322-2.201-1.281-1.04-2.335-2.413-3.161-4.122-0.828-1.707-1.241-3.868-1.241-6.483v-31.376c0-1.867 0.32-3.601 0.96-5.202 0.641-1.601 1.547-2.988 2.722-4.162 1.173-1.173 2.573-2.094 4.202-2.762 1.627-0.666 3.427-1 5.403-1 1.867 0 3.601 0.334 5.202 1 1.601 0.668 2.988 1.601 4.162 2.802 1.173 1.2 2.094 2.641 2.762 4.322 0.666 1.68 1 3.509 1 5.483v3.201h-8.164v-2.721c0-1.601-0.454-2.988-1.361-4.162-0.908-1.173-2.135-1.761-3.682-1.761-2.028 0-3.375 0.628-4.042 1.881-0.668 1.254-1 2.841-1 4.762v29.135c0 1.654 0.36 3.041 1.081 4.162 0.72 1.12 2.013 1.68 3.881 1.68 0.533 0 1.107-0.092 1.721-0.279 0.613-0.187 1.173-0.493 1.681-0.921 0.507-0.426 0.921-1.013 1.24-1.761 0.321-0.747 0.481-1.681 0.481-2.801v-2.801h8.164z"/>
    </g>
    <g transform="translate(285.3 198.44)">
     <path d="m0 0h-0.16l-4.002 20.65h8.164zm-3.5-16.893h6.919l12.942 57.954h-8.302l-2.442-12.454h-11.314l-2.442 12.454h-8.302z"/>
    </g>
    <g transform="translate(320.07 181.55)">
     <path d="m0 0h8.302v49.647h16.441v8.302h-24.743z"/>
    </g>
    <g transform="translate(372.94 207.49)">
     <path d="m0 0h4.643c1.44 0 2.587-0.2 3.441-0.601 0.854-0.399 1.507-0.972 1.961-1.72 0.453-0.747 0.761-1.667 0.921-2.762 0.16-1.093 0.24-2.361 0.24-3.802 0-1.44-0.08-2.707-0.24-3.802-0.16-1.092-0.494-2.027-1.001-2.801-0.508-0.773-1.214-1.347-2.121-1.72-0.907-0.374-2.109-0.561-3.602-0.561h-4.242zm-8.412-25.937h13.349c9.767 0 14.652 5.67 14.652 17.011 0 3.365-0.529 6.255-1.589 8.669-1.058 2.415-2.916 4.355-5.575 5.819l8.954 26.454h-8.791l-7.733-24.744h-4.964v24.744h-8.303z"/>
    </g>
    <g transform="translate(413.55 181.55)">
     <path d="m0 0h24.744v7.814h-16.441v17.012h14.325v7.813h-14.325v17.012h16.441v8.303h-24.744z"/>
    </g>
    <g transform="translate(484.19 226.29)">
     <path d="m0 0c0 1.761-0.333 3.442-1 5.042-0.668 1.602-1.588 3.002-2.762 4.203-1.174 1.2-2.549 2.161-4.122 2.881-1.574 0.721-3.268 1.081-5.082 1.081-1.549 0-3.122-0.214-4.722-0.641-1.601-0.426-3.041-1.16-4.323-2.201-1.28-1.04-2.335-2.413-3.161-4.122-0.828-1.707-1.241-3.868-1.241-6.483v-31.376c0-1.867 0.32-3.601 0.961-5.202 0.64-1.601 1.547-2.988 2.722-4.162 1.172-1.173 2.573-2.094 4.202-2.762 1.627-0.666 3.427-1 5.402-1 1.867 0 3.602 0.334 5.202 1 1.602 0.668 2.988 1.601 4.162 2.802 1.174 1.2 2.094 2.641 2.762 4.322 0.667 1.68 1 3.509 1 5.483v3.201h-8.164v-2.721c0-1.601-0.453-2.988-1.36-4.162-0.909-1.173-2.135-1.761-3.682-1.761-2.028 0-3.376 0.628-4.042 1.881-0.668 1.254-1.001 2.841-1.001 4.762v29.135c0 1.654 0.36 3.041 1.081 4.162 0.72 1.12 2.014 1.68 3.882 1.68 0.533 0 1.106-0.092 1.721-0.279 0.613-0.187 1.172-0.493 1.68-0.921 0.507-0.426 0.921-1.013 1.241-1.761 0.321-0.747 0.48-1.681 0.48-2.801v-2.801h8.164z"/>
    </g>
    <g transform="translate(196.08 220.39)">
     <path d="m0 0c-0.594-0.354-1.366-0.211-1.773 0.348-3.517 4.822-9.588 8.614-15.898 8.614-10.485 0-18.989-8.504-18.989-18.989 0-9.956 7.865-18.011 17.621-18.812 0.722-0.059 1.269-0.675 1.27-1.399l9e-3 -7.346c1e-3 -0.704-0.578-1.286-1.281-1.255-15.416 0.671-27.708 13.381-27.708 28.962 0 16.011 12.98 28.99 28.991 28.99 10.692 0 19.704-5.207 24.708-13.782 0.286-0.49 0.11-1.123-0.377-1.413z" fill="#009fe3"/>
    </g>
    <g transform="translate(187.95 215.16)">
     <path d="m0 0c0.06 0.756 0.973 1.314 1.199-0.04 0 0 2.895-12.08-9.344-15.802-0.584-0.091-0.724 0.513-0.398 0.788 3.965 2.385 7.948 7.52 8.543 15.054" fill="#009fe3"/>
    </g>
    <g transform="translate(195.84 213.65)">
     <path d="m0 0c0.114 1.02 1.449 1.853 1.691-0.846 0 0 1.771-15.018-13.034-20.776-1.225-0.127-1.24 0.987-0.549 1.421 5.565 3.721 11.107 13.195 11.892 20.201" fill="#009fe3"/>
    </g>
    <g transform="translate(205.44 217.16)">
     <path d="m0 0c0.156 1.402 1.449 1.751 1.939 0.465 0 0 5.901-27.252-21.923-35.905-1.343-0.435-1.971 1.407-0.188 2.192 12.262 6.07 18.421 17.485 20.172 33.248" fill="#009fe3"/>
    </g>
   </g>
  </g>
 </g>
</svg>
