<?xml version="1.0" encoding="UTF-8"?>
<svg width="562" height="106" version="1.1" viewBox="0 0 562 106" xml:space="preserve" xmlns="http://www.w3.org/2000/svg" xmlns:cc="http://creativecommons.org/ns#" xmlns:dc="http://purl.org/dc/elements/1.1/" xmlns:rdf="http://www.w3.org/1999/02/22-rdf-syntax-ns#"><metadata><rdf:RDF><cc:Work rdf:about=""><dc:format>image/svg+xml</dc:format><dc:type rdf:resource="http://purl.org/dc/dcmitype/StillImage"/><dc:title/></cc:Work></rdf:RDF></metadata>
<style type="text/css">
	.st0{fill:#00757B;}
</style>
<g transform="translate(-119.3,-46.9)">
	<path class="st0" d="m199.2 106.3v-19.1c0-10.7-4.2-20.8-11.7-28.3s-17.5-11.7-28.1-11.7h-0.1c-10.7 0-20.7 4.1-28.3 11.7s-11.7 17.6-11.7 28.3c0 22 17.9 40 40 40h28.9c5 0.2 9.8 2.2 13.5 5.6l3.1-3.1c-3.4-3.7-5.4-8.5-5.5-13.6zm-11.1 16.3h-28.8c-19.5 0-35.4-15.9-35.4-35.4 0-9.5 3.7-18.3 10.4-25s15.6-10.4 25-10.3c9.4 0 18.3 3.6 25 10.3s10.4 15.6 10.4 25.1v28.7c0.1 2.9 0.7 5.7 1.7 8.4-2.7-1.1-5.5-1.7-8.3-1.8z"/>
	<path class="st0" d="m544.9 46.9c-4.3 0-5.1 0.9-7.7 9.5l-18.9 64.1c-0.3 1.4-0.8 2.6-1.4 2.6s-1.1-1.2-1.6-2.6l-18.9-64.1c-2.6-8.6-3.4-9.5-7.7-9.5-4.2 0-5.2 3.4-5.9 8.1l-9.8 72.1h4.7l9.8-72.4c0.3-2 0.7-3.3 1.6-3.3 1 0 1.5 1.2 2 3.3l18.9 64.6c2.2 7.4 2.8 8.7 6.6 8.7s4.4-1.2 6.6-8.7l18.9-64.6c0.6-2 1-3.3 2-3.3 0.9 0 1.2 1.2 1.6 3.3l9.8 72.4h4.7l-9.4-72.1c-0.7-4.7-1.7-8.1-5.9-8.1z"/>
	
		<path class="st0" d="m233.4 128.6h-1.4c-12.6 0-22.9-9.6-22.9-21.5v-33.9h4.4v33.9c0 9.4 8.3 17 18.5 17h1.4c10.2 0 18.5-7.6 18.5-17v-33.9h4.4v33.9c0.1 11.8-10.2 21.5-22.9 21.5z"/>
	
	
		<path class="st0" d="m444.4 128.6h-1.4c-12.6 0-22.9-9.6-22.9-21.5v-33.9h4.4v33.9c0 9.4 8.3 17 18.5 17h1.4c10.2 0 18.5-7.6 18.5-17v-33.9h4.4v33.9c0 11.8-10.3 21.5-22.9 21.5z"/>
	
	
		<path class="st0" d="m374.9 127.1h-4.5v-32.3c0-9.4-8.3-17.1-18.5-17.1h-1.4c-10.2 0-18.5 7.7-18.5 17.1v32.3h-4.5v-32.3c0-11.9 10.3-21.6 23-21.6h1.4c12.7 0 23 9.7 23 21.6z"/>
	
	
		
			
				<path class="st0" d="m673.3 84c-0.1 2.8-1.9 5.6-4.7 7.1-3.9 2.1-7 3.1-9.9 4.1-3.6 1.2-6.9 2.3-11.5 5.2-2.4 1.7-3.9 4.2-4 6.9-0.1 1.7 0.4 3.2 1.4 4.3 0.1-2.8 1.9-5.6 4.7-7.1 3.9-2.1 7-3.1 9.9-4.1 3.6-1.2 6.9-2.3 11.5-5.2 2.4-1.7 3.9-4.2 4-6.9 0.1-1.6-0.4-3.1-1.4-4.3z"/>
			
		
		
			
				<path class="st0" d="m677.7 109.9c4.2 3.4 3.4 10.1-2.3 14-10 6.3-20.9 8-30.8 13.4-3.7 2-5.5 6.5-5.2 9.7-4.2-3.4-3.8-10.9 2.3-14.6 10-6.3 20.9-8 30.8-13.4 3.7-2 5.5-5.9 5.2-9.1z"/>
			
		
		
			<path class="st0" d="m643 121.3c2.2 1.5 5.1 2.6 7.5 3.5 2.6-1.1 4.6-1.8 7.2-2.7 0.3-0.1 0.6-0.2 1-0.3-4.2-1.2-8.5-2.4-12.8-4.9-3.2-1.8-5.3-5.3-5.5-8.6-1.1 1.2-1.5 3-1.6 4.9 0 3 0.8 5.8 4.2 8.1z"/>
		
		
			<path class="st0" d="m670.5 102.5 0.2 0.1c2.2 1 3.7 2.8 4.2 5 0.4 1.9 0.1 3.9-1 5.6-0.3-1.8-1.5-3.7-3-5l-1.3-1c-0.6-0.5-0.9-1.2-0.9-2s0.3-1.6 0.9-2.2c0.3-0.2 0.6-0.4 0.9-0.5"/>
		
		
			<path class="st0" d="m647.5 152.7h-0.2c-2.1-0.4-3.8-1.6-4.6-3.3-0.8-1.5-0.9-3.3-0.4-5 0.6 1.5 2.1 2.8 3.6 3.6l1.3 0.6c0.7 0.3 1 0.9 1.2 1.5 0.2 0.7 0.1 1.4-0.3 2.1-0.2 0.1-0.4 0.3-0.6 0.5"/>
		
		<path class="st0" d="m676.1 129.7c-0.8-0.6-1.6-1.1-2.5-1.6-2.2 1.2-4.4 2.2-6.5 3.1 2.2 0.8 4.4 1.7 6.6 3 3.2 1.8 5.3 5.3 5.5 8.6 1.1-1.2 1.5-2.8 1.5-4.7 0.1-3.5-1.8-6.3-4.6-8.4z"/>
	
	<path class="st0" d="m291.4 73.2c-15.3 0-27.7 12.4-27.7 27.7s12.4 27.7 27.7 27.7c7.4 0 14.3-2.9 19.4-7.9v-7c-4.2 6.5-11.5 10.5-19.4 10.5-12.8 0-23.3-10.4-23.3-23.3s10.4-23.3 23.3-23.3 23.3 10.4 23.3 23.3v26.1h4.4v-26.1c0-15.2-12.4-27.7-27.7-27.7z"/>
	<path class="st0" d="m600.6 47.3h-31.1v79.7h4.4v-75.2h26.7c17.5 0 31.7 15.4 31.7 34.3v2.3c0 18.9-14.2 34.3-31.7 34.3h-22.8v4.4h22.8c19.9 0 36.2-17.4 36.2-38.7v-2.4c0-21.3-16.2-38.7-36.2-38.7z"/>
	<path class="st0" d="m415 122.6h-8.4c-10.2 0-18.5-7.6-18.5-17v-28h22.3v-4.4h-22.3v-18.6h-4.4v51c0 11.9 10.3 21.5 22.9 21.5h11.9c-1.3-1.4-2.5-2.8-3.5-4.5z"/>
</g>
</svg>
